# xmcd CD database file
#
# Track frame offsets:
#	150
#	11517
#	26092
#	37427
#	55532
#	69107
#	86037
#	103095
#	114552
#	128265
#	145110
#	160855
#	176177
#	193025
#	207082
#
# Disc length: 2992 seconds
#
# Revision: 0
# Processed by: cddbd v1.5PL3 Copyright (c) Steve Scherf et al.
# Submitted via: CDex 1.51
#
DISCID=c90bae0f
DTITLE=Jim Brickman - Greatest Hits
DYEAR=2004
DGENRE=New Age
TTITLE0=Angel Eyes
TTITLE1=Valentine
TTITLE2=Rocket To The Moon
TTITLE3=Love Of My Life
TTITLE4=If You Believe
TTITLE5=By Heart
TTITLE6=Destiny
TTITLE7=Hero's Dream
TTITLE8=Partners In Crime
TTITLE9=The Gift
TTITLE10=Simple Things
TTITLE11='Til I See You Again
TTITLE12=My Love Is Here
TTITLE13=Friends For Life
TTITLE14=Patriotic Medley-God Bless America/America The Beautiful
EXTD=YEAR: 2004
EXTT0=
EXTT1=
EXTT2=
EXTT3=
EXTT4=
EXTT5=
EXTT6=
EXTT7=
EXTT8=
EXTT9=
EXTT10=
EXTT11=
EXTT12=
EXTT13=
EXTT14=
PLAYORDER=
